<svg width="97" height="100" viewBox="0 0 97 100" fill="none" xmlns="http://www.w3.org/2000/svg">
<path d="M0 0H96.242V100H0V0Z" fill="#F7DF1E"/>
<path d="M25.3057 83.5671L32.6708 78.9358C34.0917 81.5534 35.3842 83.7682 38.4846 83.7682C41.4565 83.7682 43.3301 82.5602 43.3301 77.8618V45.9095H52.3744V77.9947C52.3744 87.728 46.8834 92.1583 38.8723 92.1583C31.6372 92.1583 27.4374 88.2649 25.3055 83.5663" fill="black"/>
<path d="M57.2867 82.5603L64.6509 78.13C66.5895 81.4195 69.1091 83.8359 73.5665 83.8359C77.3139 83.8359 79.7036 81.889 79.7036 79.2039C79.7036 75.9819 77.2489 74.8406 73.1141 72.9617L70.8537 71.9541C64.3283 69.0682 59.9997 65.4435 59.9997 57.7909C59.9997 50.7427 65.1679 45.3724 73.2437 45.3724C78.9934 45.3724 83.128 47.4535 86.0995 52.8908L79.0576 57.5894C77.507 54.7032 75.8278 53.5622 73.2438 53.5622C70.595 53.5622 68.9152 55.3074 68.9152 57.5894C68.9152 60.4087 70.595 61.5501 74.4708 63.2955L76.7318 64.3024C84.4197 67.726 88.7483 71.2162 88.7483 79.0697C88.7483 87.5281 82.3526 92.1593 73.7605 92.1593C65.3621 92.1593 59.9352 87.9978 57.2869 82.5603" fill="black"/>
</svg>
