<svg width="70" height="100" viewBox="0 0 70 100" fill="none" xmlns="http://www.w3.org/2000/svg">
<g clip-path="url(#clip0_1_767)">
<path d="M17.3754 100C26.9633 100 34.7448 92.5335 34.7448 83.3335V66.6668H17.3754C7.78748 66.6668 0.00598145 74.1335 0.00598145 83.3335C0.00598145 92.5335 7.78748 100 17.3754 100Z" fill="#0ACF83"/>
<path d="M0.00598145 49.9999C0.00598145 40.7999 7.78748 33.3332 17.3754 33.3332H34.7448V66.6665H17.3754C7.78748 66.6665 0.00598145 59.1999 0.00598145 49.9999Z" fill="#A259FF"/>
<path d="M0.00390625 16.6667C0.00390625 7.46667 7.7854 0 17.3733 0H34.7427V33.3333H17.3733C7.7854 33.3333 0.00390625 25.8667 0.00390625 16.6667Z" fill="#F24E1E"/>
<path d="M34.7457 0H52.1151C61.7031 0 69.4846 7.46667 69.4846 16.6667C69.4846 25.8667 61.7031 33.3333 52.1151 33.3333H34.7457V0Z" fill="#FF7262"/>
<path d="M69.4845 49.9999C69.4845 59.1999 61.7031 66.6665 52.1151 66.6665C42.5272 66.6665 34.7457 59.1999 34.7457 49.9999C34.7457 40.7999 42.5272 33.3332 52.1151 33.3332C61.7031 33.3332 69.4845 40.7999 69.4845 49.9999Z" fill="#1ABCFE"/>
</g>
<defs>
<clipPath id="clip0_1_767">
<rect width="69.4915" height="100" fill="white"/>
</clipPath>
</defs>
</svg>
